<?xml version="1.0" encoding="UTF-8" standalone="no"?>
<svg viewBox="0 0 470.07144 194.5" xmlns="http://www.w3.org/2000/svg">
<defs>
<linearGradient gradientUnits="userSpaceOnUse" id="linearGradient3395" x2="0" y1="-118.31462" y2="-292.05383">
<stop offset="0" stop-color="#ff8635" stop-opacity=".80142"/>
<stop offset="1" stop-color="#f60"/>
</linearGradient>
<linearGradient gradientUnits="userSpaceOnUse" id="linearGradient3397" x1="14.56812" x2="13.44749" y1="221.75887" y2="247.74203">
<stop offset="0" stop-color="#fff" stop-opacity=".58824"/>
<stop offset="1" stop-color="#fff" stop-opacity="0"/>
</linearGradient>
<linearGradient gradientUnits="userSpaceOnUse" id="linearGradient3405" x2="0" y1="33.54301" y2="291.34375">
<stop offset="0" stop-color="#fff"/>
<stop offset="1" stop-color="#fff" stop-opacity="0"/>
</linearGradient>
</defs>
<g transform="translate(-67.20142,-107.93816)">
<path d="m125.90627-291.33591h352.66175a41.92017,43.07584 0 0,1 41.92017,43.07584v86.15167a41.92017,43.07584 0 0,1 -41.92017,43.07584h-352.66175a41.92017,43.07584 0 0,1 -41.92017-43.07584v-86.15167a41.92017,43.07584 0 0,1 41.92017-43.07584" fill="url(#linearGradient3395)" transform="scale(1,-1)"/>
<g fill="#fff" stroke="#f76f00" stroke-linejoin="round" stroke-width="1.90229" transform="matrix(.77326,0,0,.80408,-674.30332,-346.47753)">
<path d="m92,189a24,24 0 1,0 -48,0 24,24 0 1,0 48,0" fill="#fff" stroke="none" transform="translate(980.57143,555.79075)"/>
<path d="m1140.5714,768.79075h-34c0-45.28735-36.7126-82-82-82v-34c64.0651,0 116,51.93497 116,116z" fill="#fff" stroke="none"/>
<path d="m1164.5714,768.79075c0-77.31986-62.6801-140-140-140v-35c96.6499,0 175,78.35017 175,175h-35z" fill="#fff" stroke="none"/>
</g>
<g fill="url(#linearGradient3397)" transform="matrix(-.96167,0,0,1,204.54263,43.45262)">
<path d="m70.7452,228.61704c-10.34037,0-18.76378,8.15433-19.25,18.375h38.53125c-.48623-10.22068-8.94087-18.37501-19.28125-18.375z" fill="url(#linearGradient3397)"/>
<path d="m-3.21875,228.625c0,6.27571.63079,12.41543 1.8125,18.34375h28.125c-1.68622-5.82803-2.59375-11.97239-2.59375-18.34375h-27.34375z" fill="url(#linearGradient3397)"/>
<path d="m-50.65625,228.625c0,6.2126.40695,12.34389 1.1875,18.34375h28.4375c-.97717-5.96615-1.5-12.10113-1.5-18.34375h-28.125z" fill="url(#linearGradient3397)"/>
</g>
<g fill="url(#linearGradient3405)">
<path d="m277.11286,243v48.34375h16.46875v-1.25h12.1875c7.90677-.0001 12.84504.33175 14.8125,1 .21447.07284.42067.16569.625.25h20.46875c-.83313-1.7328-1.90976-3.33054-3.21875-4.78125-3.60082-3.99058-8.99194-6.49181-16.15625-7.53125 3.56356-2.07879 6.52362-4.38787 8.84375-6.875s5.4401-6.90228 9.375-13.25l9.96875-15.90625h-19.71875l-11.90625,17.75c-4.23185,6.34773-7.12846,10.34809-8.6875,12s-3.2241,2.79369-4.96875,3.40625-4.49493.90615-8.28125.90625h-3.34375v-34.0625h-16.46875z" fill="url(#linearGradient3405)"/>
<path d="m391.15625,244.25c-10.3197,0-18.25022,2.38621-23.78125,7.15625s-8.82975,11.74318-9.90625,20.875l16.03125,1.5625c.96514-5.38259 2.92385-9.35081 5.875-11.875s6.92612-3.78125 11.9375-3.78125c5.30827,1e-005 9.30867,1.12916 12,3.375s4.06245,4.86816 4.0625,7.875c-5e-005,1.93024-.58661,3.58256-1.71875,4.9375s-3.11634,2.52888-5.9375,3.53125c-1.93035.66816-6.32014,1.8549-13.1875,3.5625-8.83487,2.19006-15.03014,4.86996-18.59375,8.0625-.66049.59198-1.27032,1.18634-1.84375,1.8125h44.3125c.39928-.18955.79408-.37179 1.15625-.5625 3.84196-2.0231 6.85961-4.7734 9.03125-8.28125s3.24992-7.84015 3.25-13c-9e-005-4.67729-1.30784-9.073-3.90625-13.15625s-6.27981-7.10772-11.03125-9.09375-10.65991-3-17.75-3z" fill="url(#linearGradient3405)"/>
<path d="m467.625,244.28125c-10.31969,0-18.21897,2.38622-23.75,7.15625s-8.861,11.74319-9.9375,20.875l16.0625,1.53125c.96514-5.38261 2.92385-9.31956 5.875-11.84375s6.92612-3.78125 11.9375-3.78125c5.30828,0 9.30867,1.12916 12,3.375s4.0312,4.86816 4.03125,7.875c-5e-005,1.93026-.55536,3.55131-1.6875,4.90625s-3.11634,2.52887-5.9375,3.53125c-1.93034.66817-6.32014,1.88615-13.1875,3.59375-8.83487,2.19007-15.06139,4.86997-18.625,8.0625-.6495.58213-1.24718,1.16607-1.8125,1.78125h44.375c.36905-.17642.75682-.35383 1.09375-.53125 3.84196-2.02309 6.82836-4.80465 9-8.3125s3.24992-7.84016 3.25-13c-8e-005-4.67728-1.27659-9.04175-3.875-13.125s-6.27981-7.10772-11.03125-9.09375-10.69116-3-17.78125-3z" fill="url(#linearGradient3405)"/>
</g>
<path d="m277.518,242.98143v-81.62928h34.68967c8.72341.0001 15.06184.73316 19.01528,2.19938s7.11792,4.07413 9.49373,7.82335 3.56355,8.03678 3.56363,12.86241c-8e-005,6.12506-1.80045,11.18275-5.40112,15.17325s-8.98337,6.50547-16.14768,7.54491c3.56357,2.07878 6.50541,4.36169 8.82554,6.84881s5.44746,6.90451 9.38236,13.25223l9.96702,15.92494h-19.71131l-11.91587-17.76244c-4.23186-6.34772-7.1273-10.34744-8.68635-11.99935s-3.21101-2.78409-4.95566-3.39666-4.51025-.91865-8.29657-.91875h-3.3409v34.0772h-16.48177zm16.48177-47.10667h12.19428c7.90675,9e-005 12.84386-.33403 14.81132-1.00228s3.50789-1.81888 4.62158-3.45225 1.67039-3.67491 1.67046-6.12497c-7e-005-2.74694-.73321-4.96494-2.19944-6.65401s-3.53583-2.75615-6.2085-3.20165c-1.3364-.1855-5.34548-.27835-12.02724-.27844h-12.86246v20.7136zm61.69528,20.54654 16.03632-1.55907c.96512,5.3826 2.92327,9.33594 5.87441,11.86013s6.93234,3.78638 11.94372,3.78638c5.30827,0 9.30807-1.12288 11.99939-3.36872s4.03687-4.8721 4.03693-7.87894c-6e-005-1.93025-.56615-3.57294-1.69829-4.92788s-3.10895-2.5334-5.93011-3.53578c-1.93033-.66816-6.32918-1.85603-13.19654-3.56363-8.83486-2.19006-15.03407-4.88131-18.59768-8.07384-5.01136-4.4916-7.51703-9.96694-7.51702-16.42604-1e-005-4.15756 1.17858-8.04591 3.53578-11.66532s5.75376-6.37547 10.18975-8.26875 9.79066-2.83969 16.06415-2.83978c10.24538,9e-005 17.95729,2.24594 23.13574,6.73753s7.89744,10.48676 8.15736,17.9852l-16.48177.72384c-.70535-4.19463-2.21804-7.21069-4.53806-9.04828s-5.80021-2.75616-10.44031-2.75626c-4.78865.0001-8.53788.98376-11.2477,2.95116-1.74471,1.26219-2.61706,2.95116-2.61703,5.067-3e-005,1.93035.81664,3.58226 2.44999,4.95563 2.07875,1.74475 7.12722,3.56372 15.14541,5.45681s13.9482,3.85138 17.7903,5.87448 6.84877,4.78865 9.02042,8.2965 3.2573,7.84188 3.25738,13.00172c-8e-005,4.67729-1.29931,9.0576-3.89771,13.14085s-6.27354,7.11794-11.02498,9.10397-10.67236,2.979-17.76244,2.979c-10.3197,0-18.24505-2.38506-23.77607-7.15509s-8.83484-11.72101-9.91134-20.85282zm76.17251,0 16.03632-1.55907c.96512,5.3826 2.92327,9.33594 5.87441,11.86013s6.93234,3.78638 11.94372,3.78638c5.30827,0 9.30806-1.12288 11.99941-3.36872s4.03687-4.8721 4.03687-7.87894c0-1.93025-.56609-3.57294-1.69828-4.92788s-3.10891-2.5334-5.93006-3.53578c-1.93035-.66816-6.3292-1.85603-13.19656-3.56363-8.83486-2.19006-15.03407-4.88131-18.59768-8.07384-5.01136-4.4916-7.51703-9.96694-7.51702-16.42604-1e-005-4.15756 1.17858-8.04591 3.53578-11.66532s5.75376-6.37547 10.18975-8.26875 9.79066-2.83969 16.06415-2.83978c10.24542,9e-005 17.9573,2.24594 23.13577,6.73753s7.89737,10.48676 8.15738,17.9852l-16.48182.72384c-.70532-4.19463-2.218-7.21069-4.53807-9.04828s-5.8002-2.75616-10.4403-2.75626c-4.78865.0001-8.53788.98376-11.2477,2.95116-1.74471,1.26219-2.61706,2.95116-2.61703,5.067-3e-005,1.93035.81664,3.58226 2.44999,4.95563 2.07875,1.74475 7.12722,3.56372 15.14541,5.45681s13.94817,3.85138 17.79032,5.87448 6.84872,4.78865 9.02045,8.2965 3.25724,7.84188 3.25734,13.00172c-.0001,4.67729-1.29935,9.0576-3.89775,13.14085s-6.2735,7.11794-11.02491,9.10397-10.6724,2.979-17.76248,2.979c-10.3197,0-18.24505-2.38506-23.77607-7.15509s-8.83484-11.72101-9.91134-20.85282z" fill="#fff"/>
<path d="m388.15625,159.09375c-6.27349.0001-11.62656.95066-16.0625,2.84375s-7.83032,4.66204-10.1875,8.28125-3.53127,7.49868-3.53125,11.65625c0,2.25631.29473,4.39002.90625,6.40625 5.11717-.97157 10.66502-2.10759 16.5-3.34375-1.0978-1.20821-1.65628-2.60495-1.65625-4.1875-3e-005-2.11584.88028-3.80031 2.625-5.0625 2.70982-1.96741 6.46136-2.93741 11.25-2.9375 4.6401.0001 8.1174.91259 10.4375,2.75 1.21305.96081 2.19713,2.23856 2.96875,3.84375 5.68955-1.26839 11.19623-2.46315 16.59375-3.65625-1.33111-3.83377-3.57584-7.11759-6.71875-9.84375-5.17845-4.49159-12.87962-6.7499-23.125-6.75zm76.15625,0c-6.27349.0001-11.62657.95066-16.0625,2.84375s-7.83033,4.66204-10.1875,8.28125c-.28179.43268-.53315.87213-.78125,1.3125 9.88321-2.02526 17.5742-3.375 21.0625-3.375 4.01552,0 12.56337-2.51501 22.65625-6.25-4.50339-1.87347-10.07067-2.81243-16.6875-2.8125zm-178.53125,1.40625c4.52458,4.29934 10.01916,9.18378 16.0625,13.8125h4.75c6.68175.0001 10.66359.09576 12,.28125 2.67266.4455 4.75242,1.49863 6.21875,3.1875s2.18743,3.90931 2.1875,6.65625c-4e-005,1.58793-.21972,3.00518-.6875,4.25 5.41885,1.99904 10.73883,2.99949 15.65625,2.4375 .28901-.03303.60702-.08839.90625-.125 .7314-2.32692 1.12496-4.86448 1.125-7.625-8e-005-4.82563-1.18683-9.09453-3.5625-12.84375s-5.54665-6.37734-9.5-7.84375-10.27661-2.18741-19-2.1875h-26.15625z" fill="#fff" fill-rule="evenodd" opacity=".1"/>
</g>
</svg>
